<svg xmlns="http://www.w3.org/2000/svg" width="20.591" height="20.59" viewBox="0 0 20.591 20.59">
  <defs>
    <style>
      .cls-1 {
        fill: #fcfcfc;
      }
    </style>
  </defs>
  <path id="Path_177" data-name="Path 177" class="cls-1" d="M10.3,0a10.3,10.3,0,1,0,10.3,10.3A10.3,10.3,0,0,0,10.3,0Zm0,3.078a3.405,3.405,0,1,1-3.4,3.405A3.406,3.406,0,0,1,10.3,3.079Zm0,14.82a7.556,7.556,0,0,1-4.92-1.814,1.451,1.451,0,0,1-.509-1.1,3.434,3.434,0,0,1,3.451-3.433h3.962a3.429,3.429,0,0,1,3.446,3.433,1.448,1.448,0,0,1-.509,1.1A7.553,7.553,0,0,1,10.293,17.9Z" transform="translate(0 -0.001)"/>
</svg>
