<svg xmlns="http://www.w3.org/2000/svg" width="22.36" height="24.423" viewBox="0 0 22.36 24.423">
  <defs>
    <style>
      .cls-1 {
        fill: #fcfcfc;
      }
    </style>
  </defs>
  <path id="Path_165" data-name="Path 165" class="cls-1" d="M2.96,3.089,17.013,1.083a.559.559,0,0,1,.638.553V24.941a.559.559,0,0,1-.637.553L2.959,23.488A1.118,1.118,0,0,1,2,22.381V4.2a1.118,1.118,0,0,1,.96-1.107Zm15.809.138h4.472a1.118,1.118,0,0,1,1.118,1.118V22.232a1.118,1.118,0,0,1-1.118,1.118H18.77Zm-7.6,10.062L14.3,8.817H11.615L9.826,11.372,8.037,8.817H5.354l3.13,4.472L5.354,17.76H8.037L9.826,15.2l1.789,2.556H14.3Z" transform="translate(-1.999 -1.077)"/>
</svg>
