<svg id="Group_222" data-name="Group 222" xmlns="http://www.w3.org/2000/svg" width="19.773" height="16.957" viewBox="0 0 19.773 16.957">
  <defs>
    <style>
      .cls-1 {
        fill: #000e5a;
      }
    </style>
  </defs>
  <g id="Group_221" data-name="Group 221">
    <path id="Path_216" data-name="Path 216" class="cls-1" d="M18.584,38.932a1.413,1.413,0,0,0-.245-.018H4.39l.3-.141a2.829,2.829,0,0,0,.8-.566L9.405,34.3a1.464,1.464,0,0,0,.205-1.875,1.415,1.415,0,0,0-2.122-.184L.415,39.31a1.415,1.415,0,0,0,0,2h0l7.074,7.074a1.415,1.415,0,0,0,2.122-.141,1.464,1.464,0,0,0-.205-1.875L5.5,42.451a2.829,2.829,0,0,0-.707-.516l-.424-.191H18.262a1.464,1.464,0,0,0,1.493-1.188A1.415,1.415,0,0,0,18.584,38.932Z" transform="translate(0 -31.842)"/>
  </g>
</svg>
