<svg id="Group_105" data-name="Group 105" xmlns="http://www.w3.org/2000/svg" width="22.976" height="22.976" viewBox="0 0 22.976 22.976">
  <defs>
    <style>
      .cls-1 {
        fill: #fcfcfc;
      }
    </style>
  </defs>
  <path id="Path_160" data-name="Path 160" class="cls-1" d="M104.492,19.215a2,2,0,0,1,1.16-1.062V16.244a2.022,2.022,0,0,1,2.019-2.019h1.156a2.01,2.01,0,0,1,.673.116V2.019A2.022,2.022,0,0,0,107.482,0H94.019A2.022,2.022,0,0,0,92,2.019v.987h11.578A2.7,2.7,0,0,1,106.27,5.7v6.282a2.7,2.7,0,0,1-2.692,2.692H92v6.282a2.022,2.022,0,0,0,2.019,2.019h12.148l-1.374-1.6a2,2,0,0,1-.3-2.158Z" transform="translate(-87.872)"/>
  <path id="Path_161" data-name="Path 161" class="cls-1" d="M400.749,350.814h-.672v-3.141A.673.673,0,0,0,399.4,347h-1.157a.673.673,0,0,0-.673.673v3.141H396.9a.673.673,0,0,0-.511,1.111l1.923,2.244a.673.673,0,0,0,1.022,0l1.923-2.244A.673.673,0,0,0,400.749,350.814Z" transform="translate(-378.448 -331.429)"/>
  <path id="Path_162" data-name="Path 162" class="cls-1" d="M174.529,157h-.821c0,.548,0,1.445,0,1.79,0,.411,0,1.269,0,1.8.291,0,.652,0,.844-.008.917-.016,1.334-.937,1.334-1.785C175.893,157.927,175.535,157,174.529,157Z" transform="translate(-165.913 -149.955)"/>
  <path id="Path_163" data-name="Path 163" class="cls-1" d="M77.9,157h-.8c0,.3,0,.66,0,.818,0,.186,0,.536,0,.821l.795,0a.818.818,0,1,0,0-1.635Z" transform="translate(-73.643 -149.955)"/>
  <path id="Path_164" data-name="Path 164" class="cls-1" d="M17.052,104.629V98.346A1.346,1.346,0,0,0,15.706,97H1.346A1.346,1.346,0,0,0,0,98.346v6.282a1.346,1.346,0,0,0,1.346,1.346h14.36A1.346,1.346,0,0,0,17.052,104.629Zm-12.793-2.4-.8,0v1.5a.449.449,0,1,1-.9,0V99.245a.449.449,0,0,1,.449-.45H4.259a1.715,1.715,0,1,1,0,3.43Zm6.046,1.109a2.083,2.083,0,0,1-1.644.836c-.361.006-1.267.01-1.305.01h0a.449.449,0,0,1-.449-.447c0-.016-.006-1.633-.006-2.25,0-.512,0-2.238,0-2.238a.449.449,0,0,1,.449-.45H8.616c1.352,0,2.261,1.082,2.261,2.692A3.041,3.041,0,0,1,10.306,103.334Zm3.737-3.641h-1.37V101H13.9a.449.449,0,1,1,0,.9H12.672v1.837a.449.449,0,1,1-.9,0V99.244a.449.449,0,0,1,.449-.449h1.819a.449.449,0,1,1,0,.9Z" transform="translate(0 -92.647)"/>
</svg>
