<svg xmlns="http://www.w3.org/2000/svg" width="23.653" height="23.699" viewBox="0 0 23.653 23.699">
  <defs>
    <style>
      .cls-1 {
        fill: #fcfcfc;
      }
    </style>
  </defs>
  <g id="Group_106" data-name="Group 106" transform="translate(-0.5)">
    <path id="Path_166" data-name="Path 166" class="cls-1" d="M103.96,4.582V3.472A3.476,3.476,0,0,0,100.489,0H91.972A3.476,3.476,0,0,0,88.5,3.472V4.582Z" transform="translate(-83.927)"/>
    <path id="Path_167" data-name="Path 167" class="cls-1" d="M118.5,319v7.545a1.389,1.389,0,0,0,1.389,1.389h9.906a1.389,1.389,0,0,0,1.389-1.389V319Zm8.193,5.925h-3.7a.694.694,0,0,1,0-1.389h3.7a.694.694,0,0,1,0,1.389Zm0-2.962h-3.7a.694.694,0,0,1,0-1.389h3.7a.694.694,0,1,1,0,1.389Z" transform="translate(-112.538 -304.234)"/>
    <path id="Path_168" data-name="Path 168" class="cls-1" d="M20.681,129H3.972A3.476,3.476,0,0,0,.5,132.472v5.555A3.476,3.476,0,0,0,3.972,141.5h.6v-3.7H4.157a.694.694,0,0,1,0-1.389H20.45a.694.694,0,0,1,0,1.389h-.417v3.7h.648a3.476,3.476,0,0,0,3.472-3.472v-5.555A3.476,3.476,0,0,0,20.681,129Zm-14.3,4.351H4.157a.694.694,0,0,1,0-1.389H6.379a.694.694,0,0,1,0,1.389Z" transform="translate(0 -123.029)"/>
  </g>
</svg>
