<svg xmlns="http://www.w3.org/2000/svg" width="35" height="35" viewBox="0 0 35 35">
  <g id="Group_195" data-name="Group 195" transform="translate(1496 1233) rotate(-180)">
    <g id="Group_187" data-name="Group 187" transform="translate(1461 1198)">
      <circle id="Ellipse_21" data-name="Ellipse 21" cx="17.5" cy="17.5" r="17.5" fill="#008062"/>
    </g>
    <g id="Group_193" data-name="Group 193" transform="translate(1472.621 1209.165)">
      <g id="Group_146" data-name="Group 146" transform="translate(0 0)">
        <path id="Path_179" data-name="Path 179" d="M10.87,7.372a1.056,1.056,0,0,1-.183.014H3.28l.227.106a2.114,2.114,0,0,1,.6.423l2.923,2.923a1.094,1.094,0,0,1,.153,1.4,1.057,1.057,0,0,1-1.585.137L.31,7.089a1.057,1.057,0,0,1,0-1.495h0L5.595.309A1.057,1.057,0,0,1,7.18.414a1.094,1.094,0,0,1-.153,1.4L4.11,4.743a2.114,2.114,0,0,1-.528.386l-.317.143h7.365a1.094,1.094,0,0,1,1.115.888A1.057,1.057,0,0,1,10.87,7.372Z" transform="translate(0 0)" fill="#fcfcfc"/>
      </g>
    </g>
  </g>
</svg>
