<svg xmlns="http://www.w3.org/2000/svg" width="19.146" height="16.419" viewBox="0 0 19.146 16.419">
  <defs>
    <style>
      .cls-1 {
        fill: #fcfcfc;
      }
    </style>
  </defs>
  <g id="Group_108" data-name="Group 108" transform="translate(19.145 48.261) rotate(180)">
    <g id="Group_107" data-name="Group 107" transform="translate(0 31.842)">
      <path id="Path_169" data-name="Path 169" class="cls-1" d="M17.995,38.707a1.368,1.368,0,0,0-.237-.018H4.251l.295-.137A2.74,2.74,0,0,0,5.319,38l3.788-3.788a1.418,1.418,0,0,0,.2-1.815,1.37,1.37,0,0,0-2.055-.178L.4,39.073a1.37,1.37,0,0,0,0,1.937h0l6.849,6.849a1.37,1.37,0,0,0,2.055-.137,1.418,1.418,0,0,0-.2-1.815L5.326,42.115a2.74,2.74,0,0,0-.685-.5L4.23,41.43H17.682a1.418,1.418,0,0,0,1.445-1.151A1.37,1.37,0,0,0,17.995,38.707Z" transform="translate(0 -31.842)"/>
    </g>
  </g>
</svg>
