<svg xmlns="http://www.w3.org/2000/svg" width="18" height="17.793" viewBox="0 0 18 17.793">
  <g id="Group_219" data-name="Group 219" transform="translate(0 -1.844)">
    <g id="close_1_" transform="translate(0.001 1.844)">
      <path id="Path_214" data-name="Path 214" d="M1.7,20.211A1.7,1.7,0,0,1,.5,19.8a1.706,1.706,0,0,1,0-2.4L14.943,2.931a1.7,1.7,0,0,1,2.485,2.318L2.895,19.8a1.7,1.7,0,0,1-1.191.409Z" transform="translate(-0.001 -2.428)"/>
      <path id="Path_215" data-name="Path 215" d="M17.591,19.628a1.7,1.7,0,0,1-1.192-.494L1.938,4.658a1.7,1.7,0,0,1,2.4-2.4L18.885,16.729a1.706,1.706,0,0,1,.079,2.41q-.038.041-.079.079a1.7,1.7,0,0,1-1.294.409Z" transform="translate(-1.424 -1.844)"/>
    </g>
  </g>
</svg>
