<svg id="Group_192" data-name="Group 192" xmlns="http://www.w3.org/2000/svg" width="11.758" height="12.669" viewBox="0 0 11.758 12.669">
  <defs>
    <style>
      .cls-1 {
        fill: #192b2a;
      }
    </style>
  </defs>
  <g id="Group_146" data-name="Group 146" transform="translate(0 0)">
    <path id="Path_179" data-name="Path 179" class="cls-1" d="M10.87,7.372a1.056,1.056,0,0,1-.183.014H3.28l.227.106a2.114,2.114,0,0,1,.6.423l2.923,2.923a1.094,1.094,0,0,1,.153,1.4,1.057,1.057,0,0,1-1.585.137L.31,7.089a1.057,1.057,0,0,1,0-1.495h0L5.595.309A1.057,1.057,0,0,1,7.18.414a1.094,1.094,0,0,1-.153,1.4L4.11,4.743a2.114,2.114,0,0,1-.528.386l-.317.143h7.365a1.094,1.094,0,0,1,1.115.888A1.057,1.057,0,0,1,10.87,7.372Z" transform="translate(0 0)"/>
  </g>
</svg>
