<svg xmlns="http://www.w3.org/2000/svg" width="45.896" height="45.895" viewBox="0 0 45.896 45.895">
  <defs>
    <style>
      .cls-1, .cls-2 {
        fill: #008062;
      }

      .cls-2 {
        fill-rule: evenodd;
      }
    </style>
  </defs>
  <g id="Group_241" data-name="Group 241" transform="translate(-2 -2)">
    <path id="Path_219" data-name="Path 219" class="cls-1" d="M3.677,5.9A11.431,11.431,0,0,1,11.3,3H34.25A11.474,11.474,0,0,1,45.724,14.474V32.832a11.466,11.466,0,0,1-5.386,9.727l-3.391-3.391a6.886,6.886,0,0,0,4.187-6.336V16.769H14.548l-4.59-4.59H40.743A6.887,6.887,0,0,0,34.25,7.59H11.3a6.856,6.856,0,0,0-4.37,1.564L3.746,5.967,3.677,5.9Z" transform="translate(2.171 1.295)"/>
    <path id="Path_220" data-name="Path 220" class="cls-1" d="M3.076,5.883A11.43,11.43,0,0,0,2,10.741V29.1A11.474,11.474,0,0,0,13.474,40.573H36.422A11.568,11.568,0,0,0,37.7,40.5l-4.52-4.52h-19.7A6.884,6.884,0,0,1,6.59,29.1V13.036h3.639Z" transform="translate(0 5.028)"/>
    <path id="Path_221" data-name="Path 221" class="cls-2" d="M2.672,2.672a2.3,2.3,0,0,1,3.245,0L47.223,43.978a2.295,2.295,0,0,1-3.245,3.245L2.672,5.917a2.3,2.3,0,0,1,0-3.245Z" transform="translate(0 0)"/>
  </g>
</svg>
