<svg id="Component_15_1" data-name="Component 15 – 1" xmlns="http://www.w3.org/2000/svg" width="42" height="31.791" viewBox="0 0 42 31.791">
  <path id="Path_185" data-name="Path 185" d="M6.4,17h42V48.786H6.4Z" transform="translate(-6.396 -16.995)" fill="#128807"/>
  <g id="Group_199" data-name="Group 199" transform="translate(8.418 7.072)">
    <path id="Path_186" data-name="Path 186" d="M63.868,33.452c.376.462.76.953,1.146,1.466.081,1.046.1,2,.185,3.051-.012.448-.149,1.043-.28,1.1,0,0-.2.115-.333-.013a4.008,4.008,0,0,1-.484-.647.3.3,0,0,0-.471,0,6.506,6.506,0,0,0-.83,1.565c-.068.108-.261.2-.474-.009a2.135,2.135,0,0,1-.287-1.55c0,.007,0,.013-.006.026a1.686,1.686,0,0,0-.16,1.641,1.288,1.288,0,0,0,.6.681.42.42,0,0,0,.623-.067c.284-.294.288-1.047.421-1.2a.249.249,0,0,1,.442-.105,1.087,1.087,0,0,0,.4.35.679.679,0,0,0,.893.063,1.036,1.036,0,0,0,.476-.581,20.374,20.374,0,0,0,.038-3.277q.3.423.594.862a21.335,21.335,0,0,1,.1,2.683c-.02.172.6-.513.6-.838,0-.284,0-.542,0-.781.3.481.592.969.868,1.464.17-.091.112-1.057,0-1.19-.288-.484-.657-1.007-.943-1.411-.056-.511-.133-1.113-.169-1.3-.054-.288-.109-.72-.192-1.061a3.6,3.6,0,0,1-.069-.6c.034-.1.161,0,.223-.107a3.829,3.829,0,0,0-.537-1.5c-.076-.139-.214-.091-.385.135-.158.148-.1.487-.04.809.157.821.3,1.656.408,2.489-.206-.306-.457-.675-.7-1.032-.007-.034-.032-.16-.032-.162s-.034-.671-.063-.828c-.005-.064-.02-.082.046-.074a.389.389,0,0,0,.124.082c.071.013.133-.107.091-.219l-.661-1.221a.184.184,0,0,0-.091-.059c-.034-.005-.072.012-.114.074a.478.478,0,0,0-.164.362c.02.289.071.585.091.874.007.039.014.077.021.116-.031-.039-.058-.07-.074-.086-.563-.592.259-.1-.107-.554a4.387,4.387,0,0,0-.666-.653c-.133-.086-.213-.25-.257.029a5.459,5.459,0,0,0-.019.737.986.986,0,0,0,.221.459Z" transform="translate(-43.499 -31.894)" fill="#fff"/>
    <path id="Path_187" data-name="Path 187" d="M37.343,43.716c-.006.107.3.237.314.484.043.1-.065.429.025.459s.2-.226.24-.468c.024-.132-.1-.6-.32-.678a.351.351,0,0,0-.1-.008c-.1.007-.2.063-.156.21Z" transform="translate(-30.851 -37.81)" fill="#fff"/>
    <path id="Path_188" data-name="Path 188" d="M66.526,40.225a.043.043,0,0,0-.023,0s-1.284.914-1.316.945c-.128.113-.064.511,0,.465a5.121,5.121,0,0,0,1.361-.943c.056,0,.083-.45-.021-.469Z" transform="translate(-45.252 -36.109)" fill="#fff"/>
    <path id="Path_189" data-name="Path 189" d="M72.587,34.885c.045.139-.068.586.025.628s.208-.309.253-.638c.025-.18-.108-.812-.335-.925a.256.256,0,0,0-.055-.009.21.21,0,0,0-.215.287c-.033.105.276.462.327.657Z" transform="translate(-48.951 -32.852)" fill="#fff"/>
    <path id="Path_190" data-name="Path 190" d="M65.491,38.459c0-.261.03-.608.044-.824.006-.081.025-.171.1-.192s.213.079.215-.006a1.117,1.117,0,0,0-.141-.526A.264.264,0,0,0,65.5,36.8a.311.311,0,0,0-.318.267c0,.11.05.17.04.27-.014.057-.073.094-.213.027.022-.02-.091-.179-.091-.179-.109-.066-.255,0-.35.065a.535.535,0,0,0-.032.423c.157.289.694.783.95.787Z" transform="translate(-44.941 -34.333)" fill="#fff"/>
    <path id="Path_191" data-name="Path 191" d="M44.249,41.141l0,0,0,0,0,0v0a.071.071,0,0,0,0-.021l-.122-.072-2.407-.011a.267.267,0,0,1-.065-.034l0,0,0,0,0,0,0,0,0,0v0l0,0V40.96l0,0,0,0a.177.177,0,0,1,.076-.044c.575-.078,1.6-.246,1.664-1.228a.806.806,0,1,0-1.584.034c-.022.132.045.392-.091.421-.885.081-1.85.635-1.883,1.032h0l0,0,0,0h0l-.006,0H39.8l-.008,0a.23.23,0,0,1-.12-.244,4.747,4.747,0,0,0-.606-2.06c-.125-.125-.179-.175-.215-.181h-.016l-.011.006-.006,0a1.36,1.36,0,0,1-.131.118c-.12.137-.142.233-.135.508.007.029.229.646.417,1.08a3.354,3.354,0,0,1,.158,1.455,3.585,3.585,0,0,1-1.47,1.537.769.769,0,0,1-.615,0l0,0a.381.381,0,0,1-.162-.35v0l0,0a3.463,3.463,0,0,0,1.476-1.527,1.562,1.562,0,0,0,.04-1.1,1.044,1.044,0,0,0-.249-.51l0,0c.083-.039.3.118.331.019a1.6,1.6,0,0,0-.423-.781.357.357,0,0,0-.52-.032c-.179.1-.217.456-.131.769.1.235.354.276.537.75v0c0,.03.063.353-.029.484a5.8,5.8,0,0,1-1.108,1.04l-.006,0,0,0,0,0,0,0h0l0,0v0l0,0c0-.019,0-.067,0-.145-.006-.143.052-.465.049-.52v0l0,0v0h0c-.319.206-.424.837-.482,1.023A15.128,15.128,0,0,0,34.1,44.044c-.275.429,1.894-.493,2.146-.6l.006.006c.048.052.052.236.2.4a1.147,1.147,0,0,0,1.171.377,3.716,3.716,0,0,0,1.691-1.407c.065-.1.168-.17.263-.1a2.649,2.649,0,0,0,2.4,1.259c.272-.33.142-.493.032-.563-.034-.023-.584-.237-.67-.451-.054-.2.077-.375.339-.508a11.778,11.778,0,0,0,2.213-.423,1.948,1.948,0,0,1,.244-.758.331.331,0,0,1,.121-.138ZM42.264,39.63a.068.068,0,0,1,.009-.021.073.073,0,0,1,0-.009l0,0,.011-.011a.12.12,0,0,1,.061-.023.324.324,0,0,1,.187.051c.1.055.155.139.147.2,0,0,0,0,0,.006l0,.006,0,.006,0,0,0,0a.093.093,0,0,1-.013.015.235.235,0,0,1-.253-.021.252.252,0,0,1-.147-.2s0,0,0-.006ZM41.3,42.04c-.258.089-.507.157-.508.531a.517.517,0,0,1,0,.327l-.009.011,0,0,0,0,0,0,0,0,0,0-.013.006-.013,0c-.062.009-.151-.05-.217-.084a1.364,1.364,0,0,1-.67-.986.25.25,0,0,1,.253-.261h.027a7.527,7.527,0,0,0,1.007.116c.279.019.417.237.155.329Z" transform="translate(-29.161 -35.313)" fill="#fff"/>
    <path id="Path_192" data-name="Path 192" d="M47.221,40.1c.277.132.938.054.777-.373,0-.039-.011-.172-.015-.209a.119.119,0,0,0-.131-.082.151.151,0,0,0-.116.118c-.011.045.021.118-.019.141-.023.024-.113.01-.109-.114a.214.214,0,0,0-.046-.107.086.086,0,0,0-.059-.015c-.039,0-.04.012-.061.044a.377.377,0,0,0-.021.1c0,.044-.02.059-.052.065s-.027,0-.057-.015-.04-.026-.04-.059a.348.348,0,0,0-.017-.109.119.119,0,0,0-.069-.036c-.151,0-.16.172-.152.238C47.022,39.7,47.015,40.01,47.221,40.1Z" transform="translate(-35.878 -35.698)" fill="#fff"/>
    <path id="Path_193" data-name="Path 193" d="M48.949,63.959c-.166.025-.63.072-.63.072-.537-.064-.931-.07-1.535-.092.056-.071.154-.357.034-.461a.2.2,0,0,0-.143-.036h-.006l0,0-.006,0-.011-.011,0,0c-.03-.044-.047-.154-.067-.181l0,0,0,0,0,0h0l0,0a.379.379,0,0,0-.131.7c-4.218,0-10.692-.072-12.08-.072-.777,0-3.234-.092-3.281-.092a2.489,2.489,0,0,0,2.29.943c1.874,0,10.555-.023,13.026-.023a.865.865,0,0,0,.154.905l.011.006.017.006h.006c.164.039.236-.08.29-.166a16.971,16.971,0,0,0,1.9,0l0,0c.092.136.184.264.36.242.308-.066.55-.1.558-.724C49.68,64.958,49.648,63.892,48.949,63.959Zm-.3,1.141-.011,0h-.016L48.1,65.09a.114.114,0,0,0,0-.029c-.048-.141-.391-.131-.472-.021l0,.006,0,.009,0,.011a.075.075,0,0,0,0,.015.1.1,0,0,0,0,.017,4.895,4.895,0,0,1-.784-.019c-.079-.1-.07-.277.023-.32h0c.615.03,1.194.006,1.809.036a.222.222,0,0,1-.014.307Z" transform="translate(-27.605 -48.039)" fill="#fff"/>
    <path id="Path_194" data-name="Path 194" d="M52.139,48.338a.187.187,0,0,0,.236.029,4.463,4.463,0,0,1,.813-.284c.1,0,.093-.266-.063-.276a.926.926,0,0,0-.6.181c-.125.029-.147-.047-.175-.116-.032-.17.072-.289.051-.417a.3.3,0,0,0-.152-.061.182.182,0,0,0-.092.019,1.675,1.675,0,0,0-.373.318c-.054.041-.048.078-.031.149.042.1.117.067.2.021.113-.015.167.058.158.194a.25.25,0,0,0,.023.243Z" transform="translate(-38.322 -39.826)" fill="#fff"/>
    <path id="Path_195" data-name="Path 195" d="M70.86,48.618c-.052-.06-.171-.024-.25-.034-.038,0-.162-.018-.1-.129a.746.746,0,0,0,.1-.194c.038-.082,0-.138-.131-.183a.757.757,0,0,0-.166-.015c-.05,0-.1.009-.179.015s-.111.053-.126.154c.006.152.1.144.194.2a.164.164,0,0,1,0,.249c-.09.082-.154.128-.244.21-.042.073-.069.184.061.219.24.067.8-.294.8-.3A.178.178,0,0,0,70.86,48.618Z" transform="translate(-47.742 -40.173)" fill="#fff"/>
    <path id="Path_196" data-name="Path 196" d="M62.117,39.682c.193,0,.417-.442.512-.88a7.421,7.421,0,0,0-.051-1.327c-.015-.355-.4-3.236-.48-3.5-.094-.508.376-.067.324-.362-.162-.372-.568-.915-.695-1.238-.048-.087-.053-.167-.092-.16-.024,0-.058.039-.122.124a2.777,2.777,0,0,0-.154,1.264A27.452,27.452,0,0,1,62.117,39.682Z" transform="translate(-43.294 -31.954)" fill="#fff"/>
    <path id="Path_197" data-name="Path 197" d="M73.407,34.02a2.557,2.557,0,0,1-.055-.482c.037-.094.222.01.288-.1.1-.1-.48-.838-.682-1.154-.04-.079-.065-.144-.1-.141s-.062.048-.114.158a1.462,1.462,0,0,0-.118.9,49.2,49.2,0,0,1,.571,5.811,1.88,1.88,0,0,1-.114.478,3.843,3.843,0,0,1-.558.651c-.184.138-.577.269-.706.371-.407.236-.409.506-.08.516a2.028,2.028,0,0,0,1.7-.811,2.7,2.7,0,0,0,.276-1.051A24.527,24.527,0,0,0,73.407,34.02Z" transform="translate(-48.564 -31.92)" fill="#fff"/>
    <path id="Path_198" data-name="Path 198" d="M67.389,43.7c.086.046.314-.233.305-.583.025-.18-.064-.844-.29-.956a.215.215,0,0,0-.082-.006.223.223,0,0,0-.179.305c-.033.1.16.472.21.667C67.4,43.27,67.295,43.662,67.389,43.7Z" transform="translate(-46.298 -37.111)" fill="#fff"/>
    <path id="Path_199" data-name="Path 199" d="M30.345,32.952c.277.132.8.076.775-.371,0-.039-.009-.172-.013-.209a.119.119,0,0,0-.13-.082.151.151,0,0,0-.116.118c-.011.045.019.118-.021.141-.023.023-.111.008-.107-.116a.208.208,0,0,0-.046-.105.091.091,0,0,0-.061-.015c-.039,0-.038.012-.059.044a.36.36,0,0,0-.022.1c0,.044-.023.059-.055.066s-.027,0-.057-.015-.038-.026-.038-.059a.345.345,0,0,0-.019-.109.117.117,0,0,0-.067-.038c-.151,0-.162.174-.154.24-.011.012-.016.321.19.406Z" transform="translate(-27.128 -31.996)" fill="#fff"/>
    <path id="Path_200" data-name="Path 200" d="M38.828,36.67a.225.225,0,0,0-.131.04.571.571,0,0,0-.187.756.369.369,0,0,0,.4.129c.24.03.383-.451.383-.451s.007-.135-.278.12c-.12.023-.136-.021-.166-.089a.6.6,0,0,1,.038-.377C38.912,36.724,38.885,36.676,38.828,36.67Z" transform="translate(-31.423 -34.267)" fill="#fff"/>
    <path id="Path_201" data-name="Path 201" d="M58.012,39.3a5.289,5.289,0,0,1-1.788,1.3c-.075.084.187.445.526.445a2,2,0,0,0,1.529-1.224,2.178,2.178,0,0,0,.347-.939,20.481,20.481,0,0,0-.381-4.76.787.787,0,0,1,.017-.333c.037-.044.161,0,.227-.107.1-.1-.259-.92-.461-1.236-.04-.079-.065-.143-.1-.139s-.062.046-.114.156a1.774,1.774,0,0,0-.2.9c.271,1.874.354,3.515.531,5.39A.736.736,0,0,1,58.012,39.3Z" transform="translate(-40.638 -32.006)" fill="#fff"/>
    <path id="Path_202" data-name="Path 202" d="M26.11,40.988a2.139,2.139,0,0,0-1.666,1.35c.7-.337,1.392-.662,2.106-1.011-.115-.172-.007-.327-.44-.339Z" transform="translate(-24.17 -36.505)" fill="#fff"/>
    <path id="Path_203" data-name="Path 203" d="M24.524,46.949c-.175.355-.248.112-.263-.086a4.555,4.555,0,0,1,.051-1c.022-.141.021-.19,0-.19s-.05.051-.095.107a2.09,2.09,0,0,0-.213,1.853.46.46,0,0,0,.448.149.823.823,0,0,0,.3-.8C24.673,46.859,24.607,46.839,24.524,46.949Z" transform="translate(-23.874 -38.935)" fill="#fff"/>
    <path id="Path_204" data-name="Path 204" d="M24.757,35.974c.809.078.362-1.368.655-1.63.055-.13.158-.132.166.032V35.6a.59.59,0,0,0,.459.6c.212-.016.353-.011.436.2q.05,1.062.1,2.125s.49.141.514-1.194a12.514,12.514,0,0,1-.051-1.594c0-.15.2-.157.328-.084.211.149.305.333.634.259.5-.138.8-.38.809-.764a3.327,3.327,0,0,0-.23-1.1c.022-.066-.1-.239-.074-.305.09.141.226.129.257,0a1.1,1.1,0,0,0-.432-.666c-.177-.156-.436-.123-.531.2a1.771,1.771,0,0,0,.408,1.181,1.156,1.156,0,0,1,.1.589.316.316,0,0,1-.411-.08s-.4-.3-.4-.365a1.432,1.432,0,0,0-.036-.942,1.271,1.271,0,0,0-.263-.518c-.1-.105-.235-.105-.3,0a1.785,1.785,0,0,0,.034,1.253c.092.27.233.438.166.438-.054.153-.169.117-.25-.059a4.368,4.368,0,0,1-.141-1.15c-.035-.3-.075-.95-.274-1.114a.189.189,0,0,0-.177-.091.248.248,0,0,0-.187.158,5.452,5.452,0,0,0,.019.878,9.612,9.612,0,0,1,.247,1.411c.018.667-.385.288-.366-.042a3,3,0,0,0-.015-1.276c-.065-.171-.142-.213-.3-.185-.127-.008-.454.349-.546.939a5.552,5.552,0,0,0-.109.573c-.045.3-.247.521-.388-.042-.122-.409-.2-1.417-.4-1.181C24.157,34.447,24.088,35.832,24.757,35.974Z" transform="translate(-24.033 -32.066)" fill="#fff"/>
    <path id="Path_205" data-name="Path 205" d="M25.62,32.857c.042.106-.042.446.046.478s.193-.236.236-.486c.024-.137.006-.607-.314-.7a.25.25,0,0,0-.051-.006c-.122,0-.257.072-.2.219-.03.079.239.35.287.5Z" transform="translate(-24.625 -31.918)" fill="#fff"/>
    <path id="Path_206" data-name="Path 206" d="M30.886,39.139a6.178,6.178,0,0,0,.091-1.773l0,0,0,0,0,0,.013,0c.356.383.855.049.965-.084a.16.16,0,0,1,.247-.023A.575.575,0,0,0,33.078,37a7.748,7.748,0,0,0,.12-1.066,1.09,1.09,0,0,0-.385.16.1.1,0,0,0-.027.051c-.016.1-.031.2-.046.305a.088.088,0,0,1-.008.023.1.1,0,0,1-.034.032c-.064.035-.175.015-.181-.078-.086-.391-.44-.442-.655.164-.144.117-.408.14-.436-.036.035-.406-.129-.461-.457-.27-.105-.805-.21-1.574-.316-2.38.137,0,.262.1.388-.061a4.528,4.528,0,0,0-.583-1.359l0,0a.209.209,0,0,0-.023-.023l-.011-.008-.011-.006-.021-.009a.106.106,0,0,0-.044,0c-.04.005-.085.028-.137.04a.4.4,0,0,0-.282.493c.2,1.235.336,2.178.539,3.414.031.144-.09.335-.246.316-.266-.18-.332-.544-.785-.529a.884.884,0,0,0-.75.706,1.711,1.711,0,0,0,0,.809.658.658,0,0,0,.75.185c.2-.082.364-.278.434-.232h0v0c.043.076,0,.719-.939,1.215-.575.258-1.032.32-1.278-.149-.153-.293.011-1.41-.365-1.152-1.11,2.862,2.6,3.261,3.016.118.027-.089.109-.178.166-.156.026.011.049.045.057.109-.086,2.846-2.871,3.041-3.344,2.146a2.749,2.749,0,0,1-.164-.962A.476.476,0,0,0,26.9,38.5c-.113-.085-.264.136-.3.52a3.43,3.43,0,0,0-.034.691c.148,2.248,3.732,1.282,4.315-.575ZM29.5,37.194v0l0,0c-.028.036-.126.021-.2.021a.191.191,0,0,1-.177-.086c-.024-.077.05-.152.082-.209l0,0a.094.094,0,0,1,.015-.017.219.219,0,0,1,.116-.051.171.171,0,0,1,.027,0,.18.18,0,0,1,.17.124A.216.216,0,0,1,29.5,37.194Z" transform="translate(-25.271 -32.073)" fill="#fff"/>
    <path id="Path_207" data-name="Path 207" d="M57.06,37.14c.277.132.8.074.777-.373,0-.039-.011-.172-.015-.209a.119.119,0,0,0-.131-.082.154.154,0,0,0-.116.12c-.011.045.021.117-.019.139-.023.024-.113.01-.109-.114a.214.214,0,0,0-.046-.107.091.091,0,0,0-.061-.015c-.039,0-.038.012-.059.044a.377.377,0,0,0-.021.1c0,.044-.02.059-.052.065s-.03,0-.059-.015-.038-.026-.038-.059a.345.345,0,0,0-.019-.109.112.112,0,0,0-.067-.036c-.151,0-.16.172-.152.238C56.861,36.744,56.853,37.054,57.06,37.14Z" transform="translate(-40.978 -34.165)" fill="#fff"/>
    <path id="Path_208" data-name="Path 208" d="M57.253,33.321c.1.277-.076.541.027.579s.226-.286.276-.589a.916.916,0,0,0-.367-.853.293.293,0,0,0-.059-.006c-.142,0-.3.085-.238.263C56.857,32.812,57.2,33.141,57.253,33.321Z" transform="translate(-40.984 -32.08)" fill="#fff"/>
    <path id="Path_209" data-name="Path 209" d="M36.2,34.573h0l0,0h0l0,0a2.943,2.943,0,0,0,.773,0l0,0h0v0a10.919,10.919,0,0,0,1.281-1.291c-.055-.047-.105-.081-.16-.129s-.052-.1,0-.152a.419.419,0,0,0,.042-.64.68.68,0,0,0-.316-.063.619.619,0,0,0-.253.069.478.478,0,0,0-.082.634c.141.066.281.208.187.287-.4.425-1.435,1.136-1.487,1.266l0,0v.006l0,0,0,0Zm1.569-1.9.013,0a.209.209,0,0,1,.181.137c.041.09.02.175-.046.192s-.153-.043-.194-.133S37.7,32.694,37.764,32.678Z" transform="translate(-30.259 -32.001)" fill="#fff"/>
    <path id="Path_210" data-name="Path 210" d="M51.906,33.151c.465.625.912,1.252,1.344,1.9.068.482.118.954.149,1.424a28.766,28.766,0,0,1,.027,3.4c.193.008.5-.312.611-.779a22.653,22.653,0,0,0-.032-2.348c0-.158-.014-.348-.025-.546.5.821.99,1.69,1.468,2.645.174-.083.136-1.065.034-1.2-.383-.824-.912-1.637-1.08-1.95-.061-.113-.268-.428-.514-.792-.045-.519-.094-.958-.126-1.091-.079-.549.225.062.183-.257a3.513,3.513,0,0,0-.758-1.422c-.115-.163-.113-.2-.29.04a1.043,1.043,0,0,0-.074.629c-.047-.068-.1-.148-.187-.249-.308-.264-.327-.279-.583-.5a.633.633,0,0,0-.352-.135c-.07.006-.127.048-.147.152a1.606,1.606,0,0,0,.027.581,2.017,2.017,0,0,0,.326.5Zm.984-.037c.012.053.024.106.032.16.026.117.05.233.074.347-.1-.141-.187-.254-.223-.295C52.541,33.051,52.777,33.146,52.89,33.114Z" transform="translate(-38.216 -31.805)" fill="#fff"/>
    <path id="Path_211" data-name="Path 211" d="M41.619,34.974c.324.134.529-.482.661-1.156.091-.189.16-.211.207-.114-.012.9.065,1.1.295,1.369a.744.744,0,0,0,.973.017l.4-.4a.241.241,0,0,1,.333-.017c.122.111.106.3.368.436a.809.809,0,0,0,.8-.169c.147-.252.183-.339.25-.434.1-.14.284-.078.284-.034-.017.078-.122.155-.051.295.125.093.154.033.227.013.261-.125.457-.691.457-.691.012-.211-.108-.2-.185-.152-.1.061-.106.082-.207.143-.128.019-.375.1-.5-.086a7.526,7.526,0,0,1-.221-.775c0-.017-.167-.361-.013-.383.078.014.245.058.272-.082.082-.136-.176-.523-.352-.718a.378.378,0,0,0-.566-.017c-.143.131-.121.278-.15.417a.652.652,0,0,0,.133.569,1.729,1.729,0,0,1,.316,1.15.46.46,0,0,1-.415.21c-.11-.024-.29-.072-.385-.777-.072-.534.018-1.282-.209-1.632-.051-.132-.095-.261-.169-.25-.044.006-.1.062-.173.2a.838.838,0,0,0-.118.8,2.377,2.377,0,0,1,.131,1.247,2.366,2.366,0,0,1-.24.339.394.394,0,0,1-.508.069.543.543,0,0,1-.3-.428,5.87,5.87,0,0,0-.046-1.377.25.25,0,0,0-.417-.084,3.145,3.145,0,0,0-.756,1.552c-.117.377-.241.268-.328.116-.213-.2-.228-1.758-.484-1.5-.41,1.176.237,2.464.685,2.339Z" transform="translate(-32.65 -31.692)" fill="#fff"/>
    <path id="Path_212" data-name="Path 212" d="M45.942,32.82a2.229,2.229,0,0,0,.17-.8c-.025-.139-.085-.206-.154-.2s-.144.086-.207.24a3.913,3.913,0,0,0-.107.731C45.6,32.977,45.835,33.054,45.942,32.82Z" transform="translate(-35.157 -31.754)" fill="#fff"/>
    <path id="Path_213" data-name="Path 213" d="M42.39,32.645a.332.332,0,0,0,.152-.221c.038-.188-.2.089-.227-.12-.052-.194.1-.274.24-.461,0-.088,0-.16-.052-.162a.258.258,0,0,0-.12.046.891.891,0,0,0-.375.629c-.008.165-.039.165.069.27C42.154,32.738,42.232,32.727,42.39,32.645Z" transform="translate(-33.269 -31.68)" fill="#fff"/>
  </g>
</svg>
