<svg xmlns="http://www.w3.org/2000/svg" xmlns:xlink="http://www.w3.org/1999/xlink" width="201.574" height="68.469" viewBox="0 0 201.574 68.469">
  <defs>
    <style>
      .cls-1 {
        fill: #fff;
      }

      .cls-2 {
        clip-path: url(#clip-path);
      }

      .cls-3 {
        clip-path: url(#clip-path-2);
      }

      .cls-4 {
        clip-path: url(#clip-path-4);
      }
    </style>
    <clipPath id="clip-path">
      <rect id="Rectangle_29" data-name="Rectangle 29" class="cls-1" width="201.574" height="68.469" transform="translate(0 0)"/>
    </clipPath>
    <clipPath id="clip-path-2">
      <path id="Path_146" data-name="Path 146" class="cls-1" d="M186.575,43.409l7.3,4.7-1.775,5.4-.022-3.312a1.686,1.686,0,0,0-.878-1.469L185.655,45.7q-.645,1.524-1.384,3.088l4.444,2.43.057,8.451a23.7,23.7,0,0,0,8.459-13.28,1.649,1.649,0,0,0-.431-.409l-9.078-5.843c-.337,1.072-.727,2.166-1.147,3.273"/>
    </clipPath>
    <clipPath id="clip-path-4">
      <path id="Path_149" data-name="Path 149" class="cls-1" d="M156.02,49.4c-.278.2-.55.381-.824.566l.14,5.237a23.667,23.667,0,0,0,3.474,3.745l-.307-11.56A29.239,29.239,0,0,1,156.02,49.4"/>
    </clipPath>
  </defs>
  <g id="Group_59" data-name="Group 59" transform="translate(0 0)">
    <g id="Group_50" data-name="Group 50">
      <g id="Group_49" data-name="Group 49" class="cls-2">
        <path id="Path_107" data-name="Path 107" class="cls-1" d="M2.084,62.955a1.837,1.837,0,0,1-.72-.144,1.936,1.936,0,0,1-.6-.4,1.8,1.8,0,0,1-.406-.594,1.9,1.9,0,0,1-.143-.738c0-.156.083-.235.252-.235a.208.208,0,0,1,.234.235,1.336,1.336,0,0,0,.405.981,1.336,1.336,0,0,0,.981.405H4.767a1.383,1.383,0,0,0,1.386-1.386V56.006q0-.252.234-.252a.223.223,0,0,1,.252.252v5.077a1.882,1.882,0,0,1-.144.738,1.792,1.792,0,0,1-.4.594,1.948,1.948,0,0,1-.6.4,1.837,1.837,0,0,1-.72.144Z"/>
        <path id="Path_108" data-name="Path 108" class="cls-1" d="M9.88,62.938a.29.29,0,0,1-.144-.127.194.194,0,0,1-.018-.18l.414-1.314H9.34a1.553,1.553,0,0,1-1.153-.477,1.6,1.6,0,0,1-.468-1.161A1.6,1.6,0,0,1,9.34,58.058h.053a1.535,1.535,0,0,1,.64.136,1.68,1.68,0,0,1,.522.369,1.712,1.712,0,0,1,.351.54,1.685,1.685,0,0,1,.126.648,1.771,1.771,0,0,1-.072.522l-.162.558h1.746a.223.223,0,0,1,.252.252q0,.234-.252.234H10.636l-.45,1.459a.223.223,0,0,1-.234.162Zm.4-2.107.216-.7a1.5,1.5,0,0,0,.054-.4,1.184,1.184,0,0,0-.333-.828,1.093,1.093,0,0,0-.837-.36H9.34A1.135,1.135,0,0,0,8.2,59.679a1.122,1.122,0,0,0,.333.81,1.078,1.078,0,0,0,.8.342Z"/>
        <path id="Path_109" data-name="Path 109" class="cls-1" d="M12.509,61.317a.253.253,0,0,1-.171-.072.213.213,0,0,1-.081-.162.231.231,0,0,1,.081-.18.253.253,0,0,1,.171-.072h.864a1.122,1.122,0,0,0,.81-.333,1.1,1.1,0,0,0,.342-.82V58.292a.207.207,0,0,1,.234-.234c.168,0,.252.079.252.234v1.386a1.137,1.137,0,0,0,1.152,1.153h.847a.223.223,0,0,1,.252.252q0,.234-.252.234h-.847a1.645,1.645,0,0,1-.819-.207,1.561,1.561,0,0,1-.585-.567,1.577,1.577,0,0,1-1.386.774Zm1.782,1.926a.207.207,0,0,1-.234-.234q0-.252.234-.252a.223.223,0,0,1,.252.252q0,.234-.252.234m.9,0a.207.207,0,0,1-.234-.234q0-.252.234-.252a.223.223,0,0,1,.252.252q0,.234-.252.234"/>
        <path id="Path_110" data-name="Path 110" class="cls-1" d="M16.974,61.317q-.252,0-.252-.234a.223.223,0,0,1,.252-.252h5.473a1.126,1.126,0,0,0,.811-.333,1.081,1.081,0,0,0,.341-.8,1.164,1.164,0,0,0-1.152-1.152H19.188c-.156,0-.234-.085-.234-.253a.207.207,0,0,1,.234-.234h3.259A1.632,1.632,0,0,1,24.086,59.7a1.477,1.477,0,0,1-.487,1.134h2.395q.234,0,.234.252a.207.207,0,0,1-.234.234h-9.02Zm4.141-4.7a.223.223,0,0,1-.252-.252q0-.234.252-.234a.207.207,0,0,1,.234.234q0,.252-.234.252"/>
        <path id="Path_111" data-name="Path 111" class="cls-1" d="M25.922,61.317a.207.207,0,0,1-.234-.234q0-.252.234-.252H27A1.323,1.323,0,0,0,28.334,59.5V55.988c0-.169.078-.252.234-.252a.222.222,0,0,1,.252.252V59.5a1.771,1.771,0,0,1-.143.711,1.794,1.794,0,0,1-.4.576,2,2,0,0,1-.577.387,1.709,1.709,0,0,1-.7.144Z"/>
        <path id="Path_112" data-name="Path 112" class="cls-1" d="M30.135,61.317q-.234,0-.234-.252V55.988c0-.169.078-.252.234-.252a.222.222,0,0,1,.252.252v5.077a.223.223,0,0,1-.252.252"/>
        <path id="Path_113" data-name="Path 113" class="cls-1" d="M34.9,61.317a1.6,1.6,0,0,1-1.161-.468,1.551,1.551,0,0,1-.477-1.152.223.223,0,0,1,.252-.253c.156,0,.234.085.234.253a1.078,1.078,0,0,0,.342.8,1.122,1.122,0,0,0,.81.333h5.383a1.113,1.113,0,0,0,.819-.333,1.093,1.093,0,0,0,.334-.8V58.311a.222.222,0,0,1,.251-.253c.156,0,.234.084.234.253V59.7a1.55,1.55,0,0,1-.476,1.152,1.6,1.6,0,0,1-1.162.468Zm2.2-4.7q-.234,0-.234-.252a.207.207,0,0,1,.234-.234c.167,0,.251.078.251.234a.222.222,0,0,1-.251.252m.9,0c-.157,0-.235-.084-.235-.252A.207.207,0,0,1,38,56.132q.252,0,.252.234a.223.223,0,0,1-.252.252"/>
        <path id="Path_114" data-name="Path 114" class="cls-1" d="M44.826,61.317a1.786,1.786,0,0,1-1.288-.54,2,2,0,0,1-.387-.576,1.708,1.708,0,0,1-.143-.7V55.97c0-.156.083-.234.252-.234a.207.207,0,0,1,.234.234V59.5a1.292,1.292,0,0,0,.387.935,1.268,1.268,0,0,0,.945.4h.9a.207.207,0,0,1,.234.234q0,.252-.234.252Z"/>
        <path id="Path_115" data-name="Path 115" class="cls-1" d="M45.654,61.317a.207.207,0,0,1-.234-.234q0-.252.234-.252h1.674a1.6,1.6,0,0,1-.341-.513,1.575,1.575,0,0,1-.127-.621,1.6,1.6,0,0,1,.468-1.161,1.55,1.55,0,0,1,1.153-.478h.648A1.63,1.63,0,0,1,50.767,59.7a1.551,1.551,0,0,1-.477,1.152,1.6,1.6,0,0,1-1.161.468Zm3.475-.486a1.122,1.122,0,0,0,.81-.333,1.078,1.078,0,0,0,.342-.8,1.1,1.1,0,0,0-.342-.82,1.125,1.125,0,0,0-.81-.332h-.648a1.1,1.1,0,0,0-.8.332,1.114,1.114,0,0,0-.334.82,1.139,1.139,0,0,0,1.135,1.134Zm-.81-4.213q-.234,0-.234-.252a.207.207,0,0,1,.234-.234q.252,0,.252.234a.223.223,0,0,1-.252.252m.9,0q-.234,0-.234-.252a.207.207,0,0,1,.234-.234q.252,0,.252.234a.223.223,0,0,1-.252.252"/>
        <path id="Path_116" data-name="Path 116" class="cls-1" d="M53.666,61.317a1.786,1.786,0,0,1-1.288-.54,2,2,0,0,1-.387-.576,1.708,1.708,0,0,1-.143-.7V55.97c0-.156.083-.234.252-.234a.207.207,0,0,1,.234.234V59.5a1.292,1.292,0,0,0,.387.935,1.268,1.268,0,0,0,.945.4h.9a.207.207,0,0,1,.234.234q0,.252-.234.252Z"/>
        <path id="Path_117" data-name="Path 117" class="cls-1" d="M54.512,61.317a.253.253,0,0,1-.171-.072.213.213,0,0,1-.081-.162.231.231,0,0,1,.081-.18.253.253,0,0,1,.171-.072h.864a1.122,1.122,0,0,0,.81-.333,1.1,1.1,0,0,0,.342-.82V58.292a.207.207,0,0,1,.234-.234c.168,0,.252.079.252.234v1.386a1.137,1.137,0,0,0,1.152,1.153h.847a.223.223,0,0,1,.252.252q0,.234-.252.234h-.847a1.645,1.645,0,0,1-.819-.207,1.561,1.561,0,0,1-.585-.567,1.577,1.577,0,0,1-1.386.774Zm2.25,1.926a.207.207,0,0,1-.234-.234q0-.252.234-.252a.254.254,0,0,1,.171.072.231.231,0,0,1,.081.18.213.213,0,0,1-.081.162.254.254,0,0,1-.171.072"/>
        <path id="Path_118" data-name="Path 118" class="cls-1" d="M58.977,61.317q-.252,0-.252-.234a.223.223,0,0,1,.252-.252h.432a1.168,1.168,0,0,0,1.152-1.153V58.292a.207.207,0,0,1,.234-.234c.168,0,.252.079.252.234v1.386a1.123,1.123,0,0,0,.333.811,1.1,1.1,0,0,0,.82.342,1.079,1.079,0,0,0,.8-.342,1.123,1.123,0,0,0,.333-.811v-.666q0-.234.252-.234a.207.207,0,0,1,.234.234v.666a1.153,1.153,0,0,0,2.305,0V58.292a.207.207,0,0,1,.233-.234c.169,0,.252.079.252.234v1.386a1.629,1.629,0,0,1-1.638,1.639,1.577,1.577,0,0,1-1.386-.774A1.568,1.568,0,0,1,63,61.11a1.61,1.61,0,0,1-.8.207,1.646,1.646,0,0,1-.82-.207,1.561,1.561,0,0,1-.585-.567,1.577,1.577,0,0,1-1.386.774Z"/>
        <path id="Path_119" data-name="Path 119" class="cls-1" d="M71.364,62.937a1.837,1.837,0,0,1-.72-.144,1.867,1.867,0,0,1-1.152-1.729c0-.155.083-.234.251-.234a.208.208,0,0,1,.235.234,1.381,1.381,0,0,0,1.386,1.387h2.683a1.383,1.383,0,0,0,1.386-1.387V55.97a.207.207,0,0,1,.234-.234q.252,0,.252.234V59.5a1.293,1.293,0,0,0,.387.936,1.266,1.266,0,0,0,.945.4h1.08a.208.208,0,0,1,.235.234c0,.169-.079.253-.235.253h-1.08a1.716,1.716,0,0,1-.738-.162,1.957,1.957,0,0,1-.594-.432v.341a1.882,1.882,0,0,1-1.152,1.729,1.837,1.837,0,0,1-.72.144Z"/>
        <path id="Path_120" data-name="Path 120" class="cls-1" d="M78.278,61.317a.253.253,0,0,1-.171-.072.213.213,0,0,1-.081-.162.231.231,0,0,1,.081-.18.253.253,0,0,1,.171-.072h.864a1.122,1.122,0,0,0,.81-.333,1.1,1.1,0,0,0,.342-.82V58.292a.207.207,0,0,1,.234-.234c.168,0,.252.079.252.234v1.386a1.137,1.137,0,0,0,1.152,1.153h.847a.223.223,0,0,1,.252.252q0,.234-.252.234h-.847a1.645,1.645,0,0,1-.819-.207,1.561,1.561,0,0,1-.585-.567,1.577,1.577,0,0,1-1.386.774Zm1.782,1.926a.207.207,0,0,1-.234-.234q0-.252.234-.252a.223.223,0,0,1,.252.252q0,.234-.252.234m.9,0a.207.207,0,0,1-.234-.234q0-.252.234-.252a.223.223,0,0,1,.252.252q0,.234-.252.234"/>
        <path id="Path_121" data-name="Path 121" class="cls-1" d="M82.724,61.317a.207.207,0,0,1-.234-.234q0-.252.234-.252H83.8A1.323,1.323,0,0,0,85.136,59.5V55.988c0-.169.078-.252.234-.252a.222.222,0,0,1,.252.252V59.5a1.323,1.323,0,0,0,1.333,1.332h1.08q.234,0,.234.252a.207.207,0,0,1-.234.234h-1.08a1.777,1.777,0,0,1-.918-.243,1.89,1.89,0,0,1-.667-.657,1.746,1.746,0,0,1-.648.657,1.78,1.78,0,0,1-.918.243Z"/>
        <path id="Path_122" data-name="Path 122" class="cls-1" d="M87.982,61.317q-.252,0-.252-.234a.223.223,0,0,1,.252-.252h5.473a1.126,1.126,0,0,0,.811-.333,1.081,1.081,0,0,0,.341-.8,1.166,1.166,0,0,0-1.152-1.153H90.2q-.234,0-.234-.252a.207.207,0,0,1,.234-.234h3.259A1.63,1.63,0,0,1,95.094,59.7a1.48,1.48,0,0,1-.487,1.134H97q.234,0,.234.252a.207.207,0,0,1-.234.234h-9.02Z"/>
        <path id="Path_123" data-name="Path 123" class="cls-1" d="M96.948,61.317a.223.223,0,0,1-.252-.252q0-.234.252-.234h.864a1.168,1.168,0,0,0,1.152-1.153V58.292q0-.252.234-.252a.251.251,0,0,1,.171.073.227.227,0,0,1,.081.179v1.386a1.629,1.629,0,0,1-1.638,1.639ZM98.73,56.6q-.234,0-.234-.252a.207.207,0,0,1,.234-.234q.252,0,.252.234a.223.223,0,0,1-.252.252m.9,0q-.234,0-.234-.252a.207.207,0,0,1,.234-.234q.252,0,.252.234a.223.223,0,0,1-.252.252"/>
        <path id="Path_124" data-name="Path 124" class="cls-1" d="M103.915,61.317a1.539,1.539,0,0,1-1.116-.459,1.515,1.515,0,0,1-.468-1.125v-.108a1.493,1.493,0,0,1,.468-1.107,1.535,1.535,0,0,1,1.116-.46h.955a1.533,1.533,0,0,1,1.115.46,1.494,1.494,0,0,1,.469,1.107v1.206h1.44a.223.223,0,0,1,.252.252q0,.234-.252.234H106.2a.207.207,0,0,1-.234-.234V59.625a1.027,1.027,0,0,0-.324-.766,1.07,1.07,0,0,0-.773-.314h-.955a1.071,1.071,0,0,0-.774.314,1.031,1.031,0,0,0-.324.766v.108a1.048,1.048,0,0,0,.324.783,1.072,1.072,0,0,0,.774.315h.5a.254.254,0,0,1,.171.072.231.231,0,0,1,.081.18.213.213,0,0,1-.081.162.254.254,0,0,1-.171.072Zm.036-4.7q-.234,0-.234-.252a.207.207,0,0,1,.234-.234q.252,0,.252.234a.223.223,0,0,1-.252.252m.9,0q-.234,0-.234-.252a.207.207,0,0,1,.234-.234q.252,0,.252.234a.223.223,0,0,1-.252.252"/>
        <path id="Path_125" data-name="Path 125" class="cls-1" d="M107.858,61.317c-.167,0-.252-.078-.252-.234a.223.223,0,0,1,.252-.252h1.44V58.292a.207.207,0,0,1,.234-.234.258.258,0,0,1,.172.073.211.211,0,0,1,.081.161v1.135a3.077,3.077,0,0,1,1.062-1,2.894,2.894,0,0,1,1.458-.37h3.277a1.6,1.6,0,0,1,1.161.469,1.641,1.641,0,0,1,.009,2.3H118.3a.258.258,0,0,1,.171.072.231.231,0,0,1,.081.18.213.213,0,0,1-.081.162.258.258,0,0,1-.171.072Zm7.724-.486a1.168,1.168,0,0,0,1.152-1.152,1.082,1.082,0,0,0-.342-.8,1.125,1.125,0,0,0-.81-.332h-3.277a2.43,2.43,0,0,0-.927.18,2.565,2.565,0,0,0-.774.486,2.605,2.605,0,0,0-.549.72,2.532,2.532,0,0,0-.27.9Z"/>
        <path id="Path_126" data-name="Path 126" class="cls-1" d="M118.265,61.317a.253.253,0,0,1-.171-.072.213.213,0,0,1-.081-.162.231.231,0,0,1,.081-.18.253.253,0,0,1,.171-.072h.864a1.122,1.122,0,0,0,.81-.333,1.1,1.1,0,0,0,.342-.82V58.292a.207.207,0,0,1,.234-.234c.168,0,.252.079.252.234v1.386a1.137,1.137,0,0,0,1.152,1.153h.847a.223.223,0,0,1,.252.252q0,.234-.252.234h-.847a1.645,1.645,0,0,1-.819-.207,1.561,1.561,0,0,1-.585-.567,1.577,1.577,0,0,1-1.386.774Zm2.25-4.7a.223.223,0,0,1-.252-.252q0-.234.252-.234a.207.207,0,0,1,.234.234q0,.252-.234.252"/>
        <path id="Path_127" data-name="Path 127" class="cls-1" d="M126.1,61.947a1.691,1.691,0,0,1-1.369-.63h-2q-.252,0-.252-.234a.223.223,0,0,1,.252-.252h1.692a1.749,1.749,0,0,1-.143-.684,1.776,1.776,0,0,1,.539-1.287,2.021,2.021,0,0,1,.576-.388,1.713,1.713,0,0,1,.7-.143h1.656a1.771,1.771,0,0,1,.711.143,1.805,1.805,0,0,1,.964.964,1.771,1.771,0,0,1,.143.711,1.708,1.708,0,0,1-.143.7,1.883,1.883,0,0,1-.387.567,1.84,1.84,0,0,1-.577.387,1.772,1.772,0,0,1-.711.144Zm1.656-.486a1.286,1.286,0,0,0,.945-.387,1.265,1.265,0,0,0,.387-.927,1.321,1.321,0,0,0-1.332-1.332H126.1a1.3,1.3,0,0,0-.937.387,1.271,1.271,0,0,0-.4.945,1.25,1.25,0,0,0,.4.927,1.3,1.3,0,0,0,.937.387Z"/>
        <path id="Path_128" data-name="Path 128" class="cls-1" d="M20.443,45.805V34.35a.924.924,0,0,0-.924-.924H17.9a1.734,1.734,0,0,0-1.459.8L10.4,43.668,4.283,34.217a1.731,1.731,0,0,0-1.454-.791H1.136a.924.924,0,0,0-.924.924V45.805a1.249,1.249,0,0,0,1.249,1.249h.354a1.249,1.249,0,0,0,1.249-1.249V37.372l6.283,9.682h2.028l6.216-9.638v8.389a1.249,1.249,0,0,0,1.249,1.249h.354a1.249,1.249,0,0,0,1.249-1.249"/>
        <path id="Path_129" data-name="Path 129" class="cls-1" d="M48.541,33.87l-5.213,5.744-5.278-5.75a1.354,1.354,0,0,0-1-.438h-.032a1.353,1.353,0,0,0-.994,2.272l5.811,6.295v3.812a1.249,1.249,0,0,0,1.249,1.249h.354a1.249,1.249,0,0,0,1.249-1.249V41.994L50.535,35.7a1.354,1.354,0,1,0-1.994-1.831"/>
        <path id="Path_130" data-name="Path 130" class="cls-1" d="M55.378,33.888,48.85,45.18a1.249,1.249,0,0,0,1.082,1.874h.273a1.248,1.248,0,0,0,1.092-.642l1.166-2.1h9l1.146,2.09a1.248,1.248,0,0,0,1.1.648h.311a1.249,1.249,0,0,0,1.09-1.859l-6.33-11.3a.922.922,0,0,0-.805-.473h-1.8a.922.922,0,0,0-.8.462m-1.521,8,3.2-5.612,3.08,5.612Z"/>
        <path id="Path_131" data-name="Path 131" class="cls-1" d="M28.468,33.888,21.94,45.18a1.249,1.249,0,0,0,1.082,1.874H23.3a1.248,1.248,0,0,0,1.092-.642l1.166-2.1h9l1.146,2.09a1.248,1.248,0,0,0,1.1.648h.311a1.249,1.249,0,0,0,1.09-1.859l-6.33-11.3a.922.922,0,0,0-.805-.473h-1.8a.922.922,0,0,0-.8.462m-1.521,8,3.2-5.612,3.08,5.612Z"/>
        <path id="Path_132" data-name="Path 132" class="cls-1" d="M81.14,34.561a5.057,5.057,0,0,0-2.566-.942,33.978,33.978,0,0,0-4.053-.192H67.074a.924.924,0,0,0-.924.923V46.131a.924.924,0,0,0,.924.923h7.447c1.126,0,2.109-.03,2.92-.09a11.32,11.32,0,0,0,2.153-.339,4.177,4.177,0,0,0,1.563-.765,3.4,3.4,0,0,0,.959-1.316,6.025,6.025,0,0,0,.42-1.81c.06-.659.091-1.439.091-2.317v-.353a17.558,17.558,0,0,0-.255-3.342,3.592,3.592,0,0,0-1.232-2.161M69,35.991h5.4c1.344,0,2.416.04,3.185.119a2.888,2.888,0,0,1,1.493.482,1.637,1.637,0,0,1,.55,1.066,16.333,16.333,0,0,1,.147,2.483v.221a15.97,15.97,0,0,1-.147,2.439,1.61,1.61,0,0,1-.538,1.053,3,3,0,0,1-1.493.5,28.319,28.319,0,0,1-3.2.14H69Z"/>
        <path id="Path_133" data-name="Path 133" class="cls-1" d="M87.065,41.29h8.82a1.249,1.249,0,1,0,0-2.5h-8.82v-2.8h9.284A1.249,1.249,0,0,0,97.6,34.741v-.066a1.249,1.249,0,0,0-1.249-1.249H85.137a.924.924,0,0,0-.924.924V46.13a.924.924,0,0,0,.924.924h11.3a1.249,1.249,0,0,0,1.249-1.249v-.067a1.249,1.249,0,0,0-1.249-1.249H87.065Z"/>
        <path id="Path_134" data-name="Path 134" class="cls-1" d="M101.574,41.29h8.82a1.249,1.249,0,1,0,0-2.5h-8.82v-2.8h9.284a1.249,1.249,0,0,0,1.249-1.249v-.066a1.249,1.249,0,0,0-1.249-1.249H99.646a.924.924,0,0,0-.924.924V46.13a.924.924,0,0,0,.924.924h11.3a1.249,1.249,0,0,0,1.249-1.249v-.067a1.249,1.249,0,0,0-1.249-1.249h-9.372Z"/>
        <path id="Path_135" data-name="Path 135" class="cls-1" d="M126.745,34.852v8.791l-9.524-9.7a1.726,1.726,0,0,0-1.232-.517h-1.835a.924.924,0,0,0-.924.924V45.628a1.426,1.426,0,1,0,2.852,0V36.776l9.527,9.758a1.729,1.729,0,0,0,1.235.52h1.829a.924.924,0,0,0,.924-.924V34.852a1.426,1.426,0,1,0-2.852,0"/>
        <path id="Path_136" data-name="Path 136" class="cls-1" d="M9.973,11.222a1.326,1.326,0,0,0,1.4-1.457,1.3,1.3,0,0,0-1.4-1.4,1.326,1.326,0,0,0-1.457,1.4,1.352,1.352,0,0,0,1.457,1.457"/>
        <path id="Path_137" data-name="Path 137" class="cls-1" d="M63.855,25.657a1.325,1.325,0,0,0-1.4,1.457,1.3,1.3,0,0,0,1.4,1.4,1.326,1.326,0,0,0,1.457-1.4,1.352,1.352,0,0,0-1.457-1.457"/>
        <path id="Path_138" data-name="Path 138" class="cls-1" d="M60.5,25.657a1.325,1.325,0,0,0-1.4,1.457,1.3,1.3,0,0,0,1.4,1.4,1.327,1.327,0,0,0,1.458-1.4A1.352,1.352,0,0,0,60.5,25.657"/>
        <path id="Path_139" data-name="Path 139" class="cls-1" d="M65.115,11.974A1.205,1.205,0,0,0,63.843,13.3v4.059a2.835,2.835,0,0,1-2.787,2.788h-37.8a3.283,3.283,0,0,1-3.314-3.315V13.3a1.18,1.18,0,0,0-1.272-1.272A1.205,1.205,0,0,0,17.345,13.3v8.119a3.462,3.462,0,0,1-3.473,3.472H6.017A3.232,3.232,0,0,1,3.59,23.88,3.359,3.359,0,0,1,2.6,21.418a1.2,1.2,0,0,0-.435-.914,1.34,1.34,0,0,0-.89-.358A1.181,1.181,0,0,0,0,21.418a6.117,6.117,0,0,0,.468,2.389,6,6,0,0,0,5.549,3.68h7.855a6.129,6.129,0,0,0,2.39-.468,5.992,5.992,0,0,0,3.672-5.276,5.725,5.725,0,0,0,3.322,1h37.8a5.359,5.359,0,0,0,5.384-5.385V13.3A1.264,1.264,0,0,0,66,12.332a1.34,1.34,0,0,0-.89-.358"/>
        <path id="Path_140" data-name="Path 140" class="cls-1" d="M80.139,11.974H73.707A1.23,1.23,0,0,0,72.382,13.3a1.205,1.205,0,0,0,1.325,1.272h6.432a2.633,2.633,0,0,1,1.978.824,2.786,2.786,0,0,1,0,3.926,2.629,2.629,0,0,1-1.978.825H69.753a1.2,1.2,0,0,0-1.324,1.272,1.229,1.229,0,0,0,1.324,1.325H80.139a5.359,5.359,0,0,0,5.384-5.385,5.357,5.357,0,0,0-5.384-5.384"/>
        <path id="Path_141" data-name="Path 141" class="cls-1" d="M103.8,25.657a1.325,1.325,0,0,0-1.4,1.457,1.3,1.3,0,0,0,1.4,1.4,1.326,1.326,0,0,0,1.457-1.4,1.352,1.352,0,0,0-1.457-1.457"/>
        <path id="Path_142" data-name="Path 142" class="cls-1" d="M100.449,25.657a1.325,1.325,0,0,0-1.4,1.457,1.3,1.3,0,0,0,1.4,1.4,1.326,1.326,0,0,0,1.457-1.4,1.352,1.352,0,0,0-1.457-1.457"/>
        <path id="Path_143" data-name="Path 143" class="cls-1" d="M129.127,16.413A5.868,5.868,0,0,0,126,13.287a5.815,5.815,0,0,0-2.314-.469h-4.851a5.606,5.606,0,0,0-2.294.472,6.427,6.427,0,0,0-1.856,1.247,5.8,5.8,0,0,0-1.761,4.192,5.5,5.5,0,0,0,.188,1.416h-6.507a2.743,2.743,0,0,1-2.788-2.787V13.3a1.2,1.2,0,0,0-1.325-1.272,1.179,1.179,0,0,0-1.271,1.272v4.059a2.632,2.632,0,0,1-.825,1.979,2.7,2.7,0,0,1-1.963.808H93.425a3.129,3.129,0,0,1-2.349-.983,3.2,3.2,0,0,1-.966-2.331V6.5a1.18,1.18,0,0,0-1.272-1.272A1.205,1.205,0,0,0,87.514,6.5V16.831a5.586,5.586,0,0,0,.472,2.294,6.38,6.38,0,0,0,1.247,1.856,5.8,5.8,0,0,0,4.192,1.762h5.008a5.274,5.274,0,0,0,2.665-.685,5.211,5.211,0,0,0,1.4-1.163,5.2,5.2,0,0,0,1.424,1.166,5.418,5.418,0,0,0,2.687.682h7.955a5.533,5.533,0,0,0,4.275,1.845h4.851a5.824,5.824,0,0,0,2.315-.47,6.026,6.026,0,0,0,1.869-1.257,6.113,6.113,0,0,0,1.255-1.838,5.622,5.622,0,0,0,.472-2.294,5.815,5.815,0,0,0-.47-2.316M127,18.729a3.115,3.115,0,0,1-.961,2.3,3.179,3.179,0,0,1-2.353.962h-4.851a3.2,3.2,0,0,1-2.331-.967,3.068,3.068,0,0,1-.983-2.3,3.13,3.13,0,0,1,.983-2.348,3.2,3.2,0,0,1,2.331-.966h4.851A3.283,3.283,0,0,1,127,18.729"/>
        <path id="Path_144" data-name="Path 144" class="cls-1" d="M195.169,26.21l-.042.02a1.848,1.848,0,0,0-.771,2.652,23.362,23.362,0,0,1,3.424,13.847,23.575,23.575,0,0,1-47.1-1.576,23.458,23.458,0,0,1,7.455-17.163,1.839,1.839,0,0,0,.308-2.307c-.007-.011-.014-.021-.02-.032a1.858,1.858,0,0,0-2.844-.41,27.327,27.327,0,1,0,41.97,5.69,1.865,1.865,0,0,0-2.383-.721"/>
        <path id="Path_145" data-name="Path 145" class="cls-1" d="M155.109,46.7a1.669,1.669,0,0,1,.405-1.132,26.915,26.915,0,0,1-3.752,2.616,23.428,23.428,0,0,0,1.233,3.141c.707-.4,1.444-.846,2.2-1.355Z"/>
      </g>
    </g>
    <g id="Group_52" data-name="Group 52">
      <g id="Group_51" data-name="Group 51" class="cls-3">
        <rect id="Rectangle_30" data-name="Rectangle 30" class="cls-1" width="23.092" height="22.841" transform="matrix(0.688, -0.726, 0.726, 0.688, 174.519, 50.43)"/>
      </g>
    </g>
    <g id="Group_54" data-name="Group 54">
      <g id="Group_53" data-name="Group 53" class="cls-2">
        <path id="Path_147" data-name="Path 147" class="cls-1" d="M187.73,17.77A23.573,23.573,0,0,0,174.938,5.54l-1.586-4.423a1.687,1.687,0,0,0-3.057-.258L160.3,18.608a1.687,1.687,0,0,0,.231,1.972l3.4,3.676a1.689,1.689,0,0,0,1.747.464l5.546-1.75a33.819,33.819,0,0,1-8.975,23.449,1.687,1.687,0,0,0,.745,2.765l8.786,2.659-2.2,12.414a23.8,23.8,0,0,0,6,.435c.149-.009.294-.034.442-.044l7.977-15.27c.008-.015.015-.03.022-.045.09-.184.167-.363.254-.546.5-1.044.956-2.072,1.385-3.088q.489-1.156.92-2.289c.42-1.107.81-2.2,1.148-3.273,2.72-8.644,2.729-16.142.007-22.367M173.3,62.56l2.06-11.6a1.687,1.687,0,0,0-1.172-1.91l-7.727-2.338a36.327,36.327,0,0,0,7.976-26.238,1.687,1.687,0,0,0-2.177-1.367l-6.58,2.076-1.837-1.989,7.578-13.461.609,1.7a1.694,1.694,0,0,0,1.093,1.043,20.445,20.445,0,0,1,11.535,10.7c3.205,7.384,1.97,17.03-3.668,28.669Z"/>
        <path id="Path_148" data-name="Path 148" class="cls-1" d="M155.514,45.565c.141-.118.283-.234.423-.357a1.687,1.687,0,0,0-.423.357"/>
      </g>
    </g>
    <g id="Group_56" data-name="Group 56">
      <g id="Group_55" data-name="Group 55" class="cls-4">
        <rect id="Rectangle_32" data-name="Rectangle 32" class="cls-1" width="3.742" height="11.599" transform="translate(155.068 47.391) rotate(-0.637)"/>
      </g>
    </g>
    <g id="Group_58" data-name="Group 58">
      <g id="Group_57" data-name="Group 57" class="cls-2">
        <path id="Path_150" data-name="Path 150" class="cls-1" d="M166.6,30.367a1.687,1.687,0,0,0-1.282-.591h-11.7l-.086.142a25.431,25.431,0,0,0-1.457,3.231h11.188a22.8,22.8,0,0,1-7.332,12.059c-.141.122-.282.238-.423.356a1.669,1.669,0,0,0-.405,1.132l.087,3.27c.273-.183.546-.366.823-.565a29.432,29.432,0,0,0,2.483-2.012,26.306,26.306,0,0,0,8.485-15.663,1.685,1.685,0,0,0-.383-1.359"/>
        <path id="Path_151" data-name="Path 151" class="cls-1" d="M171.3,10.466a1.453,1.453,0,1,0,1.453,1.453,1.453,1.453,0,0,0-1.453-1.453"/>
        <path id="Path_152" data-name="Path 152" class="cls-1" d="M178.676,1.214A1.686,1.686,0,0,0,177.6,4.409a22.542,22.542,0,0,1,14.122,19,1.685,1.685,0,0,0,1.674,1.5,1.62,1.62,0,0,0,.184-.01,1.686,1.686,0,0,0,1.5-1.858A25.892,25.892,0,0,0,178.676,1.214"/>
      </g>
    </g>
  </g>
</svg>
